<?xml version="1.0" encoding="utf-8"?>
<svg width="24" height="24" viewBox="0 0 24 24" xmlns="http://www.w3.org/2000/svg">
  <path d="M 24.057 4.65 C 23.557 4.872 22.136 5.731 21.366 5.809 L 20.856 5.784 L 21.099 5.44 L 21.319 5.146 L 21.93 5.072 L 22.248 4.564 L 22.774 4.337 C 22.977 4.239 22.81 4.05 22.549 4.117 C 22.373 4.163 22.194 4.22 22.112 4.243 C 21.894 4.303 21.939 4.342 21.787 4.589 C 21.67 4.78 21.323 4.56 21.18 4.617 C 21.062 4.664 20.921 5.011 20.82 5.046 C 20.514 5.152 20.45 5.076 20.45 5.076 C 20.462 4.864 20.715 4.598 20.752 4.534 C 20.884 4.309 21.811 3.797 21.914 3.653 C 21.914 3.653 22.157 3.574 23.495 3.078 C 21.19 2.965 20.925 3.185 19.803 3.406 C 18.906 2.449 18.032 2.248 16.616 2.248 C 13.437 2.248 11.101 5.214 11.819 8.293 C 7.728 8.088 4.1 6.128 1.671 3.149 C 0.381 5.362 1.002 8.257 3.194 9.723 C 2.388 9.697 1.628 9.476 0.965 9.107 C 0.911 11.388 2.546 13.522 4.914 13.997 C 4.221 14.185 3.462 14.229 2.69 14.081 C 3.316 16.037 5.134 17.46 7.29 17.5 C 5.22 19.123 2.612 19.848 0 19.54 C 2.179 20.937 4.768 21.752 7.548 21.752 C 16.69 21.752 21.855 14.031 21.543 7.106 C 22.505 6.411 23.397 5.637 24.057 4.65 Z"/>
</svg>